<?xml version="1.0" encoding="UTF-8"?>
<svg id="Capa_2" data-name="Capa 2" xmlns="http://www.w3.org/2000/svg" viewBox="0 0 83 83">
  <defs>
    <style>
      .cls-1 {
        fill: none;
      }

      .cls-2 {
        fill: #fff;
      }

      .cls-3 {
        fill: #32ba46;
      }
    </style>
  </defs>
  <g id="Capa_1-2" data-name="Capa 1">
    <g>
      <path class="cls-3" d="m41.5,83c-7.26,0-14.39-1.92-20.7-5.57l-16.17,5.57,3.32-17.12C2.75,58.74,0,50.34,0,41.5,0,18.62,18.62,0,41.5,0s41.5,18.62,41.5,41.5-18.62,41.5-41.5,41.5Z"/>
      <g>
        <g>
          <path class="cls-1" d="m41.5,16.4c-13.86,0-25.09,11.24-25.09,25.1,0,5.83,2,11.17,5.33,15.43l-1.68,8.64,8.15-2.81c3.86,2.42,8.4,3.84,13.29,3.84,13.86,0,25.1-11.24,25.1-25.1s-11.24-25.1-25.1-25.1Z"/>
          <path class="cls-2" d="m41.5,68.61c-4.74,0-9.4-1.26-13.52-3.64l-10.56,3.64,2.17-11.19c-3.4-4.66-5.2-10.15-5.2-15.93,0-14.95,12.16-27.11,27.11-27.11s27.11,12.16,27.11,27.11-12.16,27.11-27.11,27.11Zm-13.03-8.07l.82.51c3.68,2.31,7.91,3.53,12.22,3.53,12.73,0,23.08-10.35,23.08-23.08s-10.35-23.08-23.08-23.08-23.08,10.35-23.08,23.08c0,5.18,1.7,10.08,4.9,14.19l.57.72-1.19,6.11,5.76-1.98Z"/>
        </g>
        <path class="cls-2" d="m27.81,31.08s1.59-2.78,2.89-2.94c1.3-.16,2.97-.16,3.42.69.45.85,2.46,5.77,2.46,5.77,0,0,.35.85-.18,1.67-.53.82-1.72,2.01-1.72,2.01,0,0-.66.85,0,1.75.66.9,1.69,2.56,3.81,4.68,2.12,2.12,6.2,3.64,6.2,3.64,0,0,.58.08.95-.29.37-.37,2.38-2.89,2.38-2.89,0,0,.65-.83,1.72-.34,1.07.49,5.72,2.81,5.72,2.81,0,0,.54.2.54,1.02s-.33,2.83-1.01,3.51c-.68.68-2.67,2.77-5.65,2.77s-10.09-2.43-13.88-6.22c-3.79-3.79-7.15-7.63-7.94-11.12-.79-3.5-.69-5.08.29-6.52Z"/>
      </g>
    </g>
  </g>
</svg>