<?xml version="1.0" encoding="UTF-8"?>
<svg id="Capa_2" data-name="Capa 2" xmlns="http://www.w3.org/2000/svg" xmlns:xlink="http://www.w3.org/1999/xlink" viewBox="0 0 106.5 120.7">
  <defs>
    <style>
      .cls-1 {
        clip-path: url(#clippath);
      }

      .cls-2 {
        clip-rule: evenodd;
        fill: none;
      }

      .cls-3 {
        fill: #ef7d00;
      }

      .cls-3, .cls-4 {
        fill-rule: evenodd;
      }

      .cls-4 {
        fill: #fff;
      }

      .cls-5 {
        fill: url(#Degradado_sin_nombre);
      }
    </style>
    <clipPath id="clippath">
      <path class="cls-2" d="m75.58,120.22c.28-.04.56-.09.84-.13,6.63-1.1,18.37-4.22,23.9-7.71,5.16-3.26,7.63-9.84,5.31-14.73-1.36-2.87-4.43-2.49-7.59-1.3-6.17,2.31-12.56,4.47-19.08,6.04-.11,2.34-1.32,3.87-3.12,5.18.27.17.53.36.83.64,3.44,3.2,2.12,9.15-1.09,12.02M57.61.03C33.07.77,15.41,18.09,7.62,35.54.91,50.6-3.08,73.25,2.99,89.76c2.15,5.84,4.49,9.61,7.7,13.57,3.46,4.26,7.62,7.74,12.36,10.48-.34-2.52,0-4.88,1.97-6.77.37-.36.71-.57,1.06-.76-.1-.08-.2-.16-.31-.25-2.56-2.22-3.41-5.34-1.84-8.49.15-.29.33-.58.52-.85-2.46-3.22-1.37-8.05.37-9.56-.87-1.74-1.46-3.31-2.05-5.29-3.24-10.81-1.26-27.06,2.39-37.29,4.05-11.33,10.69-19.43,18.86-24.15,9.29-5.37,26.61-7.41,29.01,5.32,1.19,6.33-3,15.13-.6,19.35,2.74,4.81,11.63,4.43,14.87.78,6.93-7.8,6.35-24.59.75-33.31C82.32,3.6,72.58-.41,57.61.03Z"/>
    </clipPath>
    <linearGradient id="Degradado_sin_nombre" data-name="Degradado sin nombre" x1="40.56" y1="2.24" x2="56.78" y2="80.98" gradientUnits="userSpaceOnUse">
      <stop offset="0" stop-color="#fc0"/>
      <stop offset="1" stop-color="#ef7d00"/>
    </linearGradient>
  </defs>
  <g id="Capa_1-2" data-name="Capa 1">
    <g class="cls-1">
      <rect class="cls-5" x="-3.08" y="-.41" width="111.02" height="120.63"/>
    </g>
    <path class="cls-4" d="m25.43,95.56c.36.71.74,1.22,1.21,1.68l-.48.55c-.99,1.32-1.38,2.67-1.11,4.32.11.43.21.79.37,1.18.48,1.09,1.51,2.1,2.6,2.58.88.38,1.35.36,2.33.49-.17.27-.32.63-.5.98-6.91,1.35-6,8.98-1.12,12.03,1.39.87,2.45,1.01,4.01,1.19,11.52.05,23.04.1,34.56.15h2.07c2.23-.23,3.67-.61,5.42-2.23,1.78-1.65,2.37-3.76,2.25-5.7-.16-2.45-1.59-4.63-4.7-5.24-.19-.6-.26-.61-.47-1.01,4.7-.39,7.05-4.74,4.28-8.49l-.45-.59c.19-.17.47-.46.66-.71,1.34-1.78,1.18-3.38.65-5.34-4.81-9.68-15.02-13.83-25.98-14.11-7.58.14-14.51,2.12-20.35,6.29-4.09,2.91-6.81,6.69-5.27,12.01m48.58-.39c-.23.37-.56.54-1.05.79-1.32.27-3.86.14-5.35.12-5.96-.08-37.4.07-38.15-.35-.51-.14-.9-.42-1.1-.74-.38-.49-.54-.79-.65-1.59-.17-4.94,7.37-9.94,11.64-11.4,10.89-4.16,28.54-1.8,34.53,9.19.36.66.85,1.5.81,2.42-.11.77-.28,1.12-.67,1.56Zm-43.41,3.54c.96,0,6.07-.1,6.56.13,1.06.98,4.4,3.74,5.11,4.76h-.8s-2.22-.02-2.22-.02h-2.1c-2.18-.02-4.36-.03-6.54-.04-1.69.03-2.85-.8-2.84-2.43,0-1.61,1.21-2.46,2.84-2.41Zm41.11,5.02c-3.62-.01-7.24-.03-10.87-.05h-1.22c.14-.27,5.49-4.69,5.7-4.78,2.15-.03,4.28-.02,6.42,0,3.78-.08,3.8,4.94-.04,4.84Zm-40.69-13.18l1.27.56c.45-.68.99-1.29,1.5-1.74l-.93-1.04c-.91.79-1.42,1.43-1.84,2.22Zm3.07-3.45l.93,1.28c3.46-2.99,5.64-3.59,9.72-4.8l-.31-1.36c-4.48.83-7.81,2.54-10.33,4.88Zm25.83,25.89v.41c.64.17,2.74.11,3.5.06l-.03-1.43-.35-.02h-2.22s-.87.03-.87.03l-.02.95Zm4.75.02l-.03.46,9.77.06-.28,1.2-13.33-.05h-2.1s-1.56-.01-1.56-.01v1.54s1.46-.06,1.46-.06l14.47.05c-.17.44-.85.88-1.42,1.15-1.97.96-7.36.54-9.96.53l-21.17-.09c-2.44-.01-8.19.35-9.97-.61-.85-.39-1.8-1.3-2.16-2.11-.94-1.68-.87-4.84,1.3-4.82.32-.25,16.17-.05,19.08-.05.33,0,.56.01.73.04l1.74,1.76,1.79-1.81c.45.01.9.04,1.14.04,2.82-.01,18.07-.09,18.42.21.87,0,1.6.79,1.82,1.61h-.62s-2.1,0-2.1,0h-2.22s-2.1-.02-2.1-.02h-2.22s-.43.02-.43.02l-.03.96Z"/>
    <path class="cls-3" d="m51.77,82.41c.94,0,1.7.77,1.69,1.71,0,.94-.77,1.7-1.71,1.69-.94,0-1.7-.77-1.69-1.71,0-.94.77-1.7,1.71-1.69m3.9,3.61c.94,0,1.7.77,1.69,1.71,0,.94-.77,1.7-1.71,1.69-.94,0-1.7-.77-1.69-1.71,0-.94.77-1.7,1.71-1.69Zm-8.12.06c.94,0,1.7.77,1.69,1.71,0,.94-.77,1.7-1.71,1.69-.94,0-1.7-.77-1.69-1.71,0-.94.77-1.7,1.71-1.69Z"/>
    <polygon class="cls-3" points="61.84 98.61 51.21 109.38 40.59 98.61 61.84 98.61"/>
  </g>
</svg>