<?xml version="1.0" encoding="UTF-8"?>
<svg id="Capa_2" data-name="Capa 2" xmlns="http://www.w3.org/2000/svg" xmlns:xlink="http://www.w3.org/1999/xlink" viewBox="0 0 670 394">
  <defs>
    <style>
      .cls-1, .cls-2, .cls-3, .cls-4, .cls-5, .cls-6, .cls-7, .cls-8, .cls-9, .cls-10, .cls-11, .cls-12, .cls-13, .cls-14 {
        fill: none;
      }

      .cls-2 {
        stroke-width: 1.41px;
      }

      .cls-2, .cls-3, .cls-4, .cls-5, .cls-6, .cls-7, .cls-8, .cls-9, .cls-10, .cls-11, .cls-12, .cls-13, .cls-14 {
        stroke-linecap: round;
      }

      .cls-2, .cls-3, .cls-5, .cls-7, .cls-10, .cls-12, .cls-14 {
        stroke-miterlimit: 10;
      }

      .cls-2, .cls-5, .cls-14 {
        stroke: #f7f7f7;
      }

      .cls-3 {
        stroke-width: 6px;
      }

      .cls-3, .cls-7, .cls-10, .cls-12 {
        stroke: #f2c52a;
      }

      .cls-15 {
        clip-path: url(#clippath);
      }

      .cls-4 {
        stroke-width: 2.5px;
      }

      .cls-4, .cls-6, .cls-8, .cls-9, .cls-11, .cls-13 {
        stroke: #fff;
        stroke-linejoin: round;
      }

      .cls-5 {
        stroke-width: 3px;
      }

      .cls-6 {
        stroke-width: 2.88px;
      }

      .cls-7 {
        stroke-width: 7px;
      }

      .cls-16 {
        clip-path: url(#clippath-1);
      }

      .cls-17 {
        clip-path: url(#clippath-2);
      }

      .cls-8 {
        stroke-width: 2px;
      }

      .cls-9 {
        stroke-width: .93px;
      }

      .cls-10 {
        stroke-width: 13px;
      }

      .cls-18 {
        opacity: .39;
      }

      .cls-19 {
        fill: #262626;
        filter: url(#drop-shadow-1);
      }

      .cls-11 {
        stroke-width: 3.58px;
      }

      .cls-12 {
        stroke-width: 5px;
      }

      .cls-13 {
        stroke-width: 1.72px;
      }

      .cls-14 {
        stroke-width: 2.57px;
      }
    </style>
    <filter id="drop-shadow-1" filterUnits="userSpaceOnUse">
      <feOffset dx="7" dy="7"/>
      <feGaussianBlur result="blur" stdDeviation="5"/>
      <feFlood flood-color="#000" flood-opacity=".4"/>
      <feComposite in2="blur" operator="in"/>
      <feComposite in="SourceGraphic"/>
    </filter>
    <clipPath id="clippath">
      <rect class="cls-1" x="8.14" y="8.36" width="639.72" height="363.29"/>
    </clipPath>
    <clipPath id="clippath-1">
      <circle class="cls-1" cx="635.24" cy="359.74" r="59.53" transform="translate(-87.93 259.91) rotate(-21.66)"/>
    </clipPath>
    <clipPath id="clippath-2">
      <circle class="cls-1" cx="17.48" cy="358.3" r="59.53" transform="translate(-248.24 117.3) rotate(-45)"/>
    </clipPath>
  </defs>
  <g id="BACKGROUND">
    <rect class="cls-19" x="8.14" y="8.36" width="639.72" height="363.29"/>
  </g>
  <g id="OBJECTS">
    <g class="cls-15">
      <g>
        <g class="cls-18">
          <g class="cls-16">
            <path class="cls-2" d="m652.11,262.69l-113.93,113.93m119.69-108.16l-113.93,113.93m119.69-108.16l-113.93,113.93m119.69-108.16l-113.93,113.93m119.69-108.16l-113.93,113.93m119.69-108.16l-113.93,113.93m119.69-108.16l-113.93,113.93m119.69-108.16l-113.93,113.93m119.69-108.16l-113.93,113.93m119.69-108.16l-113.93,113.93m119.69-108.16l-113.93,113.93m119.69-108.16l-113.93,113.93m119.69-108.16l-113.93,113.93m119.69-108.16l-113.93,113.93m119.16-108.7l-113.93,113.93"/>
          </g>
        </g>
        <g class="cls-18">
          <g class="cls-17">
            <path class="cls-2" d="m34.36,261.25l-113.93,113.93m119.69-108.16l-113.93,113.93m119.69-108.16l-113.93,113.93m119.69-108.16l-113.93,113.93m119.69-108.16l-113.93,113.93m119.69-108.16l-113.93,113.93m119.69-108.16l-113.93,113.93m119.69-108.16l-113.93,113.93m119.69-108.16l-113.93,113.93m119.69-108.16l-113.93,113.93m119.69-108.16l-113.93,113.93m119.69-108.16l-113.93,113.93m119.69-108.16L-10.4,444.35m119.69-108.16L-4.63,450.12m119.16-108.7L.6,455.35"/>
          </g>
        </g>
      </g>
      <g>
        <g>
          <g>
            <line class="cls-10" x1="777.19" y1="-61.9" x2="615.03" y2="100.26"/>
            <line class="cls-7" x1="777.19" y1="-23.33" x2="615.03" y2="138.83"/>
          </g>
          <g>
            <line class="cls-7" x1="393.46" y1="358.3" x2="231.3" y2="520.46"/>
            <line class="cls-12" x1="403.89" y1="320.94" x2="241.73" y2="483.1"/>
          </g>
          <line class="cls-3" x1="608.18" y1="-131.79" x2="446.02" y2="30.37"/>
        </g>
        <g>
          <line class="cls-14" x1="550.44" y1="272.59" x2="598.36" y2="272.59"/>
          <line class="cls-5" x1="5.73" y1="74.16" x2="53.65" y2="74.16"/>
          <rect class="cls-13" x="605.29" y="249.31" width="10.97" height="10.97" rx="1.65" ry="1.65" transform="translate(1222.81 3.08) rotate(135)"/>
          <rect class="cls-9" x="620.57" y="168.25" width="5.92" height="5.92" rx=".89" ry=".89" transform="translate(1185.5 -148.63) rotate(135)"/>
          <line class="cls-5" x1="334.32" y1="79.35" x2="370.82" y2="79.35"/>
          <circle class="cls-8" cx="326.32" cy="114.15" r="6.32"/>
          <rect class="cls-8" x="460.65" y="331.54" width="12.78" height="12.78" rx="1.92" ry="1.92" transform="translate(375.76 -231.27) rotate(45)"/>
          <g>
            <line class="cls-11" x1="485.51" y1="312.95" x2="492.02" y2="319.46"/>
            <line class="cls-11" x1="492.02" y1="312.95" x2="485.51" y2="319.46"/>
          </g>
          <path class="cls-4" d="m548.24,88.18c0,2.18,1.77,3.94,3.94,3.94s3.94-1.77,3.94-3.94-1.77-3.94-3.94-3.94-3.94,1.77-3.94,3.94Z"/>
          <g>
            <line class="cls-6" x1="342.57" y1="139.63" x2="337.33" y2="134.39"/>
            <line class="cls-6" x1="337.33" y1="139.63" x2="342.57" y2="134.39"/>
          </g>
        </g>
      </g>
    </g>
  </g>
</svg>