<?xml version="1.0" encoding="UTF-8"?>
<svg id="Capa_2" data-name="Capa 2" xmlns="http://www.w3.org/2000/svg" xmlns:xlink="http://www.w3.org/1999/xlink" viewBox="0 0 3087 1767">
  <defs>
    <style>
      .cls-1, .cls-2, .cls-3, .cls-4, .cls-5, .cls-6, .cls-7, .cls-8, .cls-9, .cls-10, .cls-11, .cls-12, .cls-13, .cls-14 {
        fill: none;
      }

      .cls-2 {
        stroke-width: 1.41px;
      }

      .cls-2, .cls-3, .cls-4, .cls-5, .cls-6, .cls-7, .cls-8, .cls-9, .cls-10, .cls-11, .cls-12, .cls-13, .cls-14 {
        stroke-linecap: round;
      }

      .cls-2, .cls-3, .cls-5, .cls-7, .cls-10, .cls-12, .cls-14 {
        stroke-miterlimit: 10;
      }

      .cls-2, .cls-5, .cls-14 {
        stroke: #f7f7f7;
      }

      .cls-3 {
        stroke-width: 6px;
      }

      .cls-3, .cls-7, .cls-10, .cls-12 {
        stroke: #f2c52a;
      }

      .cls-15 {
        clip-path: url(#clippath);
      }

      .cls-4 {
        stroke-width: 2.5px;
      }

      .cls-4, .cls-6, .cls-8, .cls-9, .cls-11, .cls-13 {
        stroke: #fff;
        stroke-linejoin: round;
      }

      .cls-5 {
        stroke-width: 3px;
      }

      .cls-16 {
        fill: #e0e0e0;
      }

      .cls-6 {
        stroke-width: 2.88px;
      }

      .cls-7 {
        stroke-width: 7px;
      }

      .cls-17 {
        clip-path: url(#clippath-1);
      }

      .cls-18 {
        clip-path: url(#clippath-2);
      }

      .cls-8 {
        stroke-width: 2px;
      }

      .cls-9 {
        stroke-width: .93px;
      }

      .cls-10 {
        stroke-width: 13px;
      }

      .cls-19 {
        opacity: .39;
      }

      .cls-20 {
        fill: #262626;
        filter: url(#drop-shadow-1);
      }

      .cls-11 {
        stroke-width: 3.58px;
      }

      .cls-12 {
        stroke-width: 5px;
      }

      .cls-13 {
        stroke-width: 1.72px;
      }

      .cls-14 {
        stroke-width: 2.57px;
      }
    </style>
    <filter id="drop-shadow-1" filterUnits="userSpaceOnUse">
      <feOffset dx="7" dy="7"/>
      <feGaussianBlur result="blur" stdDeviation="5"/>
      <feFlood flood-color="#000" flood-opacity=".4"/>
      <feComposite in2="blur" operator="in"/>
      <feComposite in="SourceGraphic"/>
    </filter>
    <clipPath id="clippath">
      <rect class="cls-1" x="8.76" y="8.76" width="3055.86" height="1735.37"/>
    </clipPath>
    <clipPath id="clippath-1">
      <circle class="cls-1" cx="3004.31" cy="1687.28" r="284.36" transform="translate(-313.14 2618.56) rotate(-45)"/>
    </clipPath>
    <clipPath id="clippath-2">
      <circle class="cls-1" cx="53.36" cy="1680.39" r="284.36" transform="translate(-1172.59 529.91) rotate(-45)"/>
    </clipPath>
  </defs>
  <g id="BACKGROUND">
    <rect class="cls-16" x="844.63" y="55.24" width="1616.7" height="1077.8"/>
    <rect class="cls-20" x="8.76" y="8.76" width="3055.86" height="1735.37"/>
  </g>
  <g id="OBJECTS">
    <g class="cls-15">
      <g>
        <g class="cls-19">
          <g class="cls-17">
            <path class="cls-2" d="m3084.94,1223.68l-544.22,544.22m571.76-516.69l-544.22,544.22m571.76-516.69l-544.22,544.22m571.76-516.69l-544.22,544.22m571.76-516.69l-544.22,544.22m571.76-516.69l-544.22,544.22m571.76-516.69l-544.22,544.22m571.76-516.69l-544.22,544.22m571.76-516.69l-544.22,544.22m571.76-516.69l-544.22,544.22m571.76-516.69l-544.22,544.22m571.76-516.69l-544.22,544.22m571.76-516.69l-544.22,544.22m571.76-516.69l-544.22,544.22m569.21-519.23l-544.22,544.22"/>
          </g>
        </g>
        <g class="cls-19">
          <g class="cls-18">
            <path class="cls-2" d="m133.99,1216.8l-544.22,544.22M161.53,1244.34l-544.22,544.22M189.07,1271.87l-544.22,544.22M216.6,1299.41l-544.22,544.22M244.14,1326.95l-544.22,544.22m571.76-516.69l-544.22,544.22m571.76-516.69L-245.01,1926.24m571.76-516.69L-217.48,1953.78m571.76-516.69L-189.94,1981.31m571.76-516.69L-162.4,2008.85m571.76-516.69L-134.87,2036.39m571.76-516.69L-107.33,2063.92m571.76-516.69L-79.79,2091.46m571.76-516.69L-52.26,2118.99m569.21-519.23L-27.27,2143.98"/>
          </g>
        </g>
      </g>
      <g>
        <g>
          <g>
            <line class="cls-10" x1="3682.42" y1="-326.84" x2="2907.81" y2="447.77"/>
            <line class="cls-7" x1="3682.42" y1="-142.59" x2="2907.81" y2="632.03"/>
          </g>
          <g>
            <line class="cls-7" x1="1849.38" y1="1680.39" x2="1074.77" y2="2455"/>
            <line class="cls-12" x1="1899.19" y1="1501.92" x2="1124.58" y2="2276.53"/>
          </g>
          <line class="cls-3" x1="2875.08" y1="-660.71" x2="2100.47" y2="113.9"/>
        </g>
        <g>
          <line class="cls-14" x1="2599.26" y1="1270.97" x2="2828.18" y2="1270.97"/>
          <line class="cls-5" x1="-2.76" y1="323.09" x2="226.17" y2="323.09"/>
          <rect class="cls-13" x="2861.25" y="1159.78" width="52.38" height="52.38" rx="1.65" ry="1.65" transform="translate(5767.76 -17.18) rotate(135)"/>
          <rect class="cls-9" x="2934.27" y="772.56" width="28.29" height="28.29" rx=".89" ry=".89" transform="translate(5589.51 -741.89) rotate(135)"/>
          <line class="cls-5" x1="1566.87" y1="347.89" x2="1741.25" y2="347.89"/>
          <circle class="cls-8" cx="1528.66" cy="514.12" r="30.19"/>
          <rect class="cls-8" x="2170.33" y="1552.56" width="61.07" height="61.07" rx="1.92" ry="1.92" transform="translate(1764.08 -1092.57) rotate(45)"/>
          <g>
            <line class="cls-11" x1="2289.1" y1="1463.77" x2="2320.19" y2="1494.86"/>
            <line class="cls-11" x1="2320.19" y1="1463.77" x2="2289.1" y2="1494.86"/>
          </g>
          <path class="cls-4" d="m2588.73,390.06c0,10.4,8.43,18.84,18.84,18.84s18.84-8.43,18.84-18.84-8.43-18.84-18.84-18.84-18.84,8.43-18.84,18.84Z"/>
          <g>
            <line class="cls-6" x1="1606.29" y1="635.83" x2="1581.25" y2="610.8"/>
            <line class="cls-6" x1="1581.25" y1="635.83" x2="1606.29" y2="610.8"/>
          </g>
        </g>
      </g>
    </g>
  </g>
</svg>