<?xml version="1.0" encoding="UTF-8"?>
<svg id="Capa_2" data-name="Capa 2" xmlns="http://www.w3.org/2000/svg" xmlns:xlink="http://www.w3.org/1999/xlink" viewBox="0 0 4001 2426">
  <defs>
    <style>
      .cls-1, .cls-2, .cls-3, .cls-4, .cls-5, .cls-6, .cls-7, .cls-8, .cls-9, .cls-10, .cls-11, .cls-12, .cls-13, .cls-14 {
        fill: none;
      }

      .cls-2 {
        stroke-width: 1.41px;
      }

      .cls-2, .cls-3, .cls-4, .cls-5, .cls-6, .cls-7, .cls-8, .cls-9, .cls-10, .cls-11, .cls-12, .cls-13, .cls-14 {
        stroke-linecap: round;
      }

      .cls-2, .cls-3, .cls-5, .cls-7, .cls-10, .cls-12, .cls-14 {
        stroke-miterlimit: 10;
      }

      .cls-2, .cls-5, .cls-14 {
        stroke: #f7f7f7;
      }

      .cls-3 {
        stroke-width: 6px;
      }

      .cls-3, .cls-7, .cls-10, .cls-12 {
        stroke: #f2c52a;
      }

      .cls-15 {
        clip-path: url(#clippath);
      }

      .cls-4 {
        stroke-width: 2.5px;
      }

      .cls-4, .cls-6, .cls-8, .cls-9, .cls-11, .cls-13 {
        stroke: #fff;
        stroke-linejoin: round;
      }

      .cls-5 {
        stroke-width: 3px;
      }

      .cls-16 {
        fill: #e0e0e0;
      }

      .cls-6 {
        stroke-width: 2.88px;
      }

      .cls-7 {
        stroke-width: 7px;
      }

      .cls-17 {
        clip-path: url(#clippath-1);
      }

      .cls-18 {
        clip-path: url(#clippath-2);
      }

      .cls-8 {
        stroke-width: 2px;
      }

      .cls-9 {
        stroke-width: .93px;
      }

      .cls-10 {
        stroke-width: 13px;
      }

      .cls-19 {
        opacity: .39;
      }

      .cls-20 {
        fill: #262626;
        filter: url(#drop-shadow-1);
      }

      .cls-11 {
        stroke-width: 3.58px;
      }

      .cls-12 {
        stroke-width: 5px;
      }

      .cls-13 {
        stroke-width: 1.72px;
      }

      .cls-14 {
        stroke-width: 2.57px;
      }
    </style>
    <filter id="drop-shadow-1" filterUnits="userSpaceOnUse">
      <feOffset dx="7" dy="7"/>
      <feGaussianBlur result="blur" stdDeviation="5"/>
      <feFlood flood-color="#000" flood-opacity=".4"/>
      <feComposite in2="blur" operator="in"/>
      <feComposite in="SourceGraphic"/>
    </filter>
    <clipPath id="clippath">
      <rect class="cls-1" x="8.36" y="8.76" width="3970.53" height="2395.04"/>
    </clipPath>
    <clipPath id="clippath-1">
      <ellipse class="cls-1" cx="3900.53" cy="2325.33" rx="369.47" ry="392.45"/>
    </clipPath>
    <clipPath id="clippath-2">
      <ellipse class="cls-1" cx="66.31" cy="2315.83" rx="369.47" ry="392.45"/>
    </clipPath>
  </defs>
  <g id="BACKGROUND">
    <rect class="cls-16" x="1094.42" y="72.9" width="2100.61" height="1487.51"/>
    <rect class="cls-20" x="8.36" y="8.76" width="3970.53" height="2395.04"/>
  </g>
  <g id="OBJECTS">
    <g class="cls-15">
      <g>
        <g class="cls-19">
          <g class="cls-17">
            <path class="cls-2" d="m4005.3,1685.51l-707.12,751.1m742.9-713.1l-707.12,751.1m742.9-713.1l-707.12,751.1m742.9-713.1l-707.12,751.1m742.9-713.1l-707.12,751.1m742.9-713.1l-707.12,751.1m742.9-713.1l-707.12,751.1m742.9-713.1l-707.12,751.1m742.9-713.1l-707.12,751.1m742.9-713.1l-707.12,751.1m742.9-713.1l-707.12,751.1m742.9-713.1l-707.12,751.1m742.9-713.1l-707.12,751.1m742.9-713.1l-707.12,751.1m739.59-716.61l-707.12,751.1"/>
          </g>
        </g>
        <g class="cls-19">
          <g class="cls-18">
            <path class="cls-2" d="m171.07,1676.01l-707.12,751.1M206.85,1714.02l-707.12,751.1M242.63,1752.02l-707.12,751.1m742.9-713.1l-707.12,751.1m742.9-713.1l-707.12,751.1m742.9-713.1l-707.12,751.1m742.9-713.1l-707.12,751.1m742.9-713.1l-707.12,751.1m742.9-713.1l-707.12,751.1m742.9-713.1l-707.12,751.1m742.9-713.1l-707.12,751.1m742.9-713.1l-707.12,751.1m742.9-713.1L-106.7,2883.16m742.9-713.1L-70.92,2921.16m739.59-716.61L-38.46,2955.65"/>
          </g>
        </g>
      </g>
      <g>
        <g>
          <g>
            <line class="cls-10" x1="4781.61" y1="-454.42" x2="3775.14" y2="614.65"/>
            <line class="cls-7" x1="4781.61" y1="-200.12" x2="3775.14" y2="868.95"/>
          </g>
          <g>
            <line class="cls-7" x1="2399.91" y1="2315.82" x2="1393.44" y2="3384.89"/>
            <line class="cls-12" x1="2464.62" y1="2069.51" x2="1458.16" y2="3138.57"/>
          </g>
          <line class="cls-3" x1="3732.62" y1="-915.19" x2="2726.15" y2="153.87"/>
        </g>
        <g>
          <line class="cls-14" x1="3374.23" y1="1750.78" x2="3671.68" y2="1750.78"/>
          <line class="cls-5" x1="-6.61" y1="442.58" x2="290.84" y2="442.58"/>
          <path class="cls-13" d="m3749.92,1683.26l45.64-48.48c.69-.73.69-1.91,0-2.64l-45.64-48.48c-.69-.73-1.8-.73-2.49,0l-45.64,48.48c-.69.73-.69,1.91,0,2.64l45.64,48.48c.69.73,1.8.73,2.49,0Z"/>
          <path class="cls-9" d="m3828.57,1109.32l24.65-26.18c.37-.39.37-1.03,0-1.43l-24.65-26.18c-.37-.39-.97-.39-1.34,0l-24.65,26.18c-.37.39-.37,1.03,0,1.43l24.65,26.18c.37.39.97.39,1.34,0Z"/>
          <line class="cls-5" x1="2032.84" y1="476.81" x2="2259.41" y2="476.81"/>
          <ellipse class="cls-8" cx="1983.19" cy="706.22" rx="39.22" ry="41.66"/>
          <path class="cls-8" d="m2855.15,2239.61l-53.21-56.52c-.8-.85-.8-2.23,0-3.08l53.21-56.52c.8-.85,2.1-.85,2.9,0l53.21,56.52c.8.85.8,2.23,0,3.08l-53.21,56.52c-.8.85-2.1.85-2.9,0Z"/>
          <g>
            <line class="cls-11" x1="2971.25" y1="2016.86" x2="3011.65" y2="2059.77"/>
            <line class="cls-11" x1="3011.65" y1="2016.86" x2="2971.25" y2="2059.77"/>
          </g>
          <path class="cls-4" d="m3360.56,535c0,14.36,10.96,26,24.48,26s24.48-11.64,24.48-26-10.96-26-24.48-26-24.48,11.64-24.48,26Z"/>
          <g>
            <line class="cls-6" x1="2084.05" y1="874.2" x2="2051.52" y2="839.65"/>
            <line class="cls-6" x1="2051.52" y1="874.2" x2="2084.05" y2="839.65"/>
          </g>
        </g>
      </g>
    </g>
  </g>
</svg>