<?xml version="1.0" encoding="UTF-8"?>
<svg id="Capa_2" data-name="Capa 2" xmlns="http://www.w3.org/2000/svg" xmlns:xlink="http://www.w3.org/1999/xlink" viewBox="0 0 3757 2147">
  <defs>
    <style>
      .cls-1, .cls-2, .cls-3, .cls-4, .cls-5, .cls-6, .cls-7, .cls-8, .cls-9, .cls-10, .cls-11, .cls-12, .cls-13, .cls-14 {
        fill: none;
      }

      .cls-2 {
        stroke-width: 1.41px;
      }

      .cls-2, .cls-3, .cls-4, .cls-5, .cls-6, .cls-7, .cls-8, .cls-9, .cls-10, .cls-11, .cls-12, .cls-13, .cls-14 {
        stroke-linecap: round;
      }

      .cls-2, .cls-3, .cls-5, .cls-7, .cls-10, .cls-12, .cls-14 {
        stroke-miterlimit: 10;
      }

      .cls-2, .cls-5, .cls-14 {
        stroke: #f7f7f7;
      }

      .cls-3 {
        stroke-width: 6px;
      }

      .cls-3, .cls-7, .cls-10, .cls-12 {
        stroke: #f2c52a;
      }

      .cls-15 {
        clip-path: url(#clippath);
      }

      .cls-4 {
        stroke-width: 2.5px;
      }

      .cls-4, .cls-6, .cls-8, .cls-9, .cls-11, .cls-13 {
        stroke: #fff;
        stroke-linejoin: round;
      }

      .cls-5 {
        stroke-width: 3px;
      }

      .cls-16 {
        fill: #e0e0e0;
      }

      .cls-6 {
        stroke-width: 2.88px;
      }

      .cls-7 {
        stroke-width: 7px;
      }

      .cls-17 {
        clip-path: url(#clippath-1);
      }

      .cls-18 {
        clip-path: url(#clippath-2);
      }

      .cls-8 {
        stroke-width: 2px;
      }

      .cls-9 {
        stroke-width: .93px;
      }

      .cls-10 {
        stroke-width: 13px;
      }

      .cls-19 {
        opacity: .39;
      }

      .cls-20 {
        fill: #262626;
        filter: url(#drop-shadow-1);
      }

      .cls-11 {
        stroke-width: 3.58px;
      }

      .cls-12 {
        stroke-width: 5px;
      }

      .cls-13 {
        stroke-width: 1.72px;
      }

      .cls-14 {
        stroke-width: 2.57px;
      }
    </style>
    <filter id="drop-shadow-1" filterUnits="userSpaceOnUse">
      <feOffset dx="7" dy="7"/>
      <feGaussianBlur result="blur" stdDeviation="5"/>
      <feFlood flood-color="#000" flood-opacity=".4"/>
      <feComposite in2="blur" operator="in"/>
      <feComposite in="SourceGraphic"/>
    </filter>
    <clipPath id="clippath">
      <rect class="cls-1" x="8.76" y="8.76" width="3725.9" height="2115.88"/>
    </clipPath>
    <clipPath id="clippath-1">
      <circle class="cls-1" cx="3661.14" cy="2055.32" r="346.71" transform="translate(-381.01 3190.8) rotate(-45)"/>
    </clipPath>
    <clipPath id="clippath-2">
      <circle class="cls-1" cx="63.14" cy="2046.92" r="346.71" transform="translate(-1428.9 644.18) rotate(-45)"/>
    </clipPath>
  </defs>
  <g id="BACKGROUND">
    <rect class="cls-16" x="1027.91" y="65.43" width="1971.19" height="1314.13"/>
    <rect class="cls-20" x="8.76" y="8.76" width="3725.9" height="2115.88"/>
  </g>
  <g id="OBJECTS">
    <g class="cls-15">
      <g>
        <g class="cls-19">
          <g class="cls-17">
            <path class="cls-2" d="m3759.45,1490.08l-663.55,663.55m697.13-629.98l-663.55,663.55m697.13-629.98l-663.55,663.55m697.13-629.98l-663.55,663.55m697.13-629.98l-663.55,663.55m697.13-629.98l-663.55,663.55m697.13-629.98l-663.55,663.55m697.13-629.98l-663.55,663.55m697.13-629.98l-663.55,663.55m697.13-629.98l-663.55,663.55m697.13-629.98l-663.55,663.55m697.13-629.98l-663.55,663.55m697.13-629.98l-663.55,663.55m697.13-629.98l-663.55,663.55m694.02-633.08l-663.55,663.55"/>
          </g>
        </g>
        <g class="cls-19">
          <g class="cls-18">
            <path class="cls-2" d="m161.45,1481.68l-663.55,663.55M195.03,1515.26l-663.55,663.55M228.6,1548.83l-663.55,663.55m697.13-629.98l-663.55,663.55m697.13-629.98l-663.55,663.55m697.13-629.98l-663.55,663.55m697.13-629.98l-663.55,663.55m697.13-629.98l-663.55,663.55m697.13-629.98l-663.55,663.55m697.13-629.98l-663.55,663.55m697.13-629.98l-663.55,663.55m697.13-629.98l-663.55,663.55m697.13-629.98L-99.21,2548.12m697.13-629.98L-65.64,2581.7m694.02-633.08L-35.17,2612.17"/>
          </g>
        </g>
      </g>
      <g>
        <g>
          <g>
            <line class="cls-10" x1="4487.93" y1="-400.43" x2="3543.47" y2="544.03"/>
            <line class="cls-7" x1="4487.93" y1="-175.77" x2="3543.47" y2="768.69"/>
          </g>
          <g>
            <line class="cls-7" x1="2252.96" y1="2046.92" x2="1308.51" y2="2991.37"/>
            <line class="cls-12" x1="2313.69" y1="1829.31" x2="1369.24" y2="2773.77"/>
          </g>
          <line class="cls-3" x1="3503.57" y1="-807.5" x2="2559.11" y2="136.96"/>
        </g>
        <g>
          <line class="cls-14" x1="3167.26" y1="1547.73" x2="3446.38" y2="1547.73"/>
          <line class="cls-5" x1="-5.28" y1="392.01" x2="273.84" y2="392.01"/>
          <rect class="cls-13" x="3486.7" y="1412.16" width="63.87" height="63.87" rx="1.65" ry="1.65" transform="translate(7027.8 -22.87) rotate(135)"/>
          <rect class="cls-9" x="3575.73" y="940.04" width="34.49" height="34.49" rx=".89" ry=".89" transform="translate(6810.46 -906.48) rotate(135)"/>
          <line class="cls-5" x1="1908.52" y1="422.25" x2="2121.12" y2="422.25"/>
          <circle class="cls-8" cx="1861.92" cy="624.92" r="36.81"/>
          <rect class="cls-8" x="2644.29" y="1891.07" width="74.46" height="74.46" rx="1.92" ry="1.92" transform="translate(2148.96 -1331.34) rotate(45)"/>
          <g>
            <line class="cls-11" x1="2789.11" y1="1782.8" x2="2827.01" y2="1820.71"/>
            <line class="cls-11" x1="2827.01" y1="1782.8" x2="2789.11" y2="1820.71"/>
          </g>
          <path class="cls-4" d="m3154.43,473.66c0,12.69,10.28,22.97,22.97,22.97s22.97-10.28,22.97-22.97-10.28-22.97-22.97-22.97-22.97,10.28-22.97,22.97Z"/>
          <g>
            <line class="cls-6" x1="1956.57" y1="773.33" x2="1926.05" y2="742.8"/>
            <line class="cls-6" x1="1926.05" y1="773.33" x2="1956.57" y2="742.8"/>
          </g>
        </g>
      </g>
    </g>
  </g>
</svg>